<svg width="15" height="15" viewBox="0 0 15 15" fill="none" xmlns="http://www.w3.org/2000/svg">
<path d="M14.0361 7.35125C13.5215 6.02022 12.6282 4.86914 11.4665 4.04029C10.3049 3.21143 8.92584 2.74113 7.49981 2.6875C6.07379 2.74113 4.69473 3.21143 3.53309 4.04029C2.37145 4.86914 1.47813 6.02022 0.963564 7.35125C0.928812 7.44737 0.928812 7.55263 0.963564 7.64875C1.47813 8.97978 2.37145 10.1309 3.53309 10.9597C4.69473 11.7886 6.07379 12.2589 7.49981 12.3125C8.92584 12.2589 10.3049 11.7886 11.4665 10.9597C12.6282 10.1309 13.5215 8.97978 14.0361 7.64875C14.0708 7.55263 14.0708 7.44737 14.0361 7.35125ZM7.49981 11.4375C5.18106 11.4375 2.73106 9.71812 1.84294 7.5C2.73106 5.28187 5.18106 3.5625 7.49981 3.5625C9.81856 3.5625 12.2686 5.28187 13.1567 7.5C12.2686 9.71812 9.81856 11.4375 7.49981 11.4375Z" fill="#444444"/>
<path d="M7.5 4.875C6.98082 4.875 6.47331 5.02895 6.04163 5.31739C5.60995 5.60583 5.2735 6.0158 5.07482 6.49546C4.87614 6.97511 4.82415 7.50291 4.92544 8.01211C5.02673 8.52131 5.27673 8.98904 5.64385 9.35616C6.01096 9.72327 6.47869 9.97328 6.98789 10.0746C7.49709 10.1758 8.02489 10.1239 8.50454 9.92518C8.9842 9.7265 9.39417 9.39005 9.68261 8.95837C9.97105 8.52669 10.125 8.01918 10.125 7.5C10.125 6.80381 9.84844 6.13613 9.35616 5.64384C8.86387 5.15156 8.19619 4.875 7.5 4.875ZM7.5 9.25C7.15388 9.25 6.81554 9.14736 6.52775 8.95507C6.23997 8.76278 6.01567 8.48947 5.88321 8.1697C5.75076 7.84992 5.7161 7.49806 5.78363 7.15859C5.85115 6.81913 6.01782 6.5073 6.26256 6.26256C6.50731 6.01782 6.81913 5.85115 7.15859 5.78363C7.49806 5.7161 7.84993 5.75076 8.1697 5.88321C8.48947 6.01566 8.76278 6.23997 8.95507 6.52775C9.14737 6.81554 9.25 7.15388 9.25 7.5C9.25 7.96413 9.06563 8.40925 8.73744 8.73744C8.40925 9.06562 7.96413 9.25 7.5 9.25Z" fill="#444444"/>
</svg>
